<?xml version="1.0" encoding="utf-8" standalone="no"?>
<!DOCTYPE svg PUBLIC "-//W3C//DTD SVG 1.1//EN"
  "http://www.w3.org/Graphics/SVG/1.1/DTD/svg11.dtd">
<!-- Created with matplotlib (http://matplotlib.org/) -->
<svg height="421pt" version="1.1" viewBox="0 0 421 421" width="421pt" xmlns="http://www.w3.org/2000/svg" xmlns:xlink="http://www.w3.org/1999/xlink">
 <defs>
  <style type="text/css">
*{stroke-linecap:butt;stroke-linejoin:round;stroke-miterlimit:100000;}
  </style>
 </defs>
 <g id="figure_1">
  <g id="patch_1">
   <path d="M 0 421.158125 
L 421.450312 421.158125 
L 421.450312 0 
L 0 0 
z
" style="fill:#ffffff;"/>
  </g>
  <g id="axes_1">
   <g id="patch_2">
    <path d="M 21.170313 400.28 
L 414.250312 400.28 
L 414.250312 7.2 
L 21.170313 7.2 
z
" style="fill:#ffffff;"/>
   </g>
   <g id="LineCollection_1">
    <path clip-path="url(#p4fdf0a3df5)" d="M 28.729543 200.4443 
L 56.929695 196.544339 
L 80.235324 193.5373 
L 99.928711 191.215298 
L 116.592346 189.471255 
L 130.983667 188.19062 
L 143.102674 187.334136 
L 153.706805 186.808861 
L 162.796061 186.580035 
L 170.37044 186.593695 
L 177.187382 186.811175 
L 183.246886 187.213109 
L 188.548951 187.769142 
L 193.093579 188.436474 
L 197.638207 189.32491 
L 201.425397 190.275914 
L 205.212586 191.467976 
L 208.521926 192.75715 
L 211.27209 194.048313 
L 213.544404 195.300859 
L 215.816718 196.75881 
L 218.089031 198.470042 
L 220.361345 200.499846 
L 222.343009 202.603843 
L 224.152552 204.876157 
L 225.688806 207.148471 
L 227.401999 210.178223 
L 228.812639 213.207974 
L 229.982337 216.237726 
L 231.174399 220.024916 
L 232.125402 223.812106 
L 233.013839 228.356733 
L 233.681171 232.901361 
L 234.237204 238.203427 
L 234.639138 244.26293 
L 234.856617 251.079872 
L 234.870278 258.654252 
L 234.6692 266.986069 
L 234.205488 276.832762 
L 233.437635 288.194332 
L 232.339313 301.070777 
L 230.815327 316.219536 
L 228.833935 333.640609 
L 226.280528 354.091434 
L 223.02599 378.329448 
L 221.006012 392.720769 
L 221.006012 392.720769 
" style="fill:none;stroke:#000000;stroke-dasharray:1.000000,3.000000;stroke-dashoffset:0.0;"/>
    <path clip-path="url(#p4fdf0a3df5)" d="M 406.691082 116.274567 
L 394.572074 117.114748 
L 383.967943 117.62086 
L 374.878688 117.828092 
L 367.304308 117.790989 
L 360.487367 117.546198 
L 354.427863 117.113715 
L 349.125797 116.523448 
L 344.58117 115.819445 
L 340.036542 114.885276 
L 336.249352 113.886206 
L 332.462162 112.633655 
L 329.432411 111.403134 
L 326.402659 109.917087 
L 324.130345 108.594812 
L 321.858031 107.051005 
L 319.585717 105.232464 
L 317.618173 103.379471 
L 315.798527 101.373846 
L 314.283651 99.433951 
L 312.768776 97.180898 
L 311.134183 94.290216 
L 309.717378 91.260464 
L 308.543045 88.230712 
L 307.34589 84.443522 
L 306.391072 80.656333 
L 305.49894 76.111705 
L 304.828574 71.567077 
L 304.269677 66.265012 
L 303.865343 60.205508 
L 303.645484 53.388566 
L 303.629903 45.814187 
L 303.829452 37.482369 
L 304.291561 27.635676 
L 305.058094 16.274107 
L 305.175745 14.759231 
L 305.175745 14.759231 
" style="fill:none;stroke:#000000;stroke-dasharray:1.000000,3.000000;stroke-dashoffset:0.0;"/>
   </g>
   <g id="LineCollection_2">
    <path clip-path="url(#p4fdf0a3df5)" d="M 28.729543 81.130355 
L 56.754748 107.740652 
L 78.288514 127.617486 
L 88.567142 136.84753 
L 100.686149 147.435995 
L 111.29028 156.375481 
L 123.565668 166.246821 
L 130.983667 171.917575 
L 139.315484 177.975537 
L 146.889864 183.167974 
L 153.706805 187.564734 
L 160.523747 191.689954 
L 168.098127 195.957518 
L 175.672506 199.926161 
L 187.791513 205.932415 
L 193.851017 209.094982 
L 196.994924 210.935661 
L 199.910521 212.879459 
L 202.286738 214.72285 
L 204.455148 216.695022 
L 206.166472 218.51004 
L 208.242338 221.088099 
L 210.109091 223.812106 
L 212.029528 227.016305 
L 214.368893 231.386485 
L 218.505134 239.718303 
L 223.475113 249.564996 
L 227.178287 256.411571 
L 231.105116 263.198879 
L 235.321181 270.015821 
L 240.839822 278.347638 
L 245.637516 285.16458 
L 251.416301 292.964484 
L 257.109104 300.313339 
L 265.074831 310.160032 
L 273.382002 320.026155 
L 282.59129 330.610857 
L 294.126305 343.487302 
L 309.463681 360.150937 
L 331.704724 383.718311 
L 340.319958 392.720769 
L 340.319958 392.720769 
" style="fill:none;stroke:#008000;stroke-width:2.0;"/>
    <path clip-path="url(#p4fdf0a3df5)" d="M 243.084484 192.815029 
L 240.81217 192.545719 
L 238.434578 191.999712 
L 236.403138 191.242274 
L 234.972124 190.484836 
L 233.867213 189.727398 
L 232.480353 188.471437 
L 231.625252 187.455084 
L 230.654533 185.940208 
L 229.941681 184.425332 
L 229.418636 182.910456 
L 228.904594 180.638142 
L 228.635284 178.365829 
L 228.558679 176.093515 
L 228.695459 173.063763 
L 229.05977 170.034011 
L 229.781805 166.246821 
L 230.762801 162.459632 
L 231.977309 158.672442 
L 233.409161 154.885252 
L 235.049938 151.098062 
L 237.02498 147.061697 
L 239.297294 142.909975 
L 241.203195 139.736493 
L 243.841922 135.709782 
L 246.871674 131.502838 
L 249.320012 128.374924 
L 252.528397 124.587734 
L 256.031539 120.800544 
L 259.875352 117.013354 
L 263.535309 113.728141 
L 267.322498 110.627478 
L 271.109688 107.811235 
L 274.896878 105.27007 
L 278.684068 102.992603 
L 282.471257 100.976178 
L 286.258447 99.225778 
L 290.045637 97.745075 
L 293.832827 96.545529 
L 296.862579 95.804468 
L 299.89233 95.274103 
L 302.922082 94.968585 
L 305.951834 94.920414 
L 308.224148 95.073254 
L 310.496462 95.417843 
L 312.768776 95.978267 
L 315.041089 96.804143 
L 316.555965 97.533109 
L 318.642719 98.834844 
L 319.62133 99.592281 
L 321.220407 101.107157 
L 322.615469 102.807594 
L 323.489715 104.136909 
L 324.64617 106.409223 
L 325.472045 108.681537 
L 326.032469 110.953851 
L 326.402659 113.493543 
L 326.529899 115.498478 
L 326.481728 118.52823 
L 326.17621 121.557982 
L 325.645221 124.590598 
L 324.887783 127.677612 
L 323.705237 131.404676 
L 322.544257 134.434427 
L 320.844897 138.221617 
L 318.828279 142.10854 
L 316.555965 145.960028 
L 314.169034 149.583186 
L 311.2539 153.573337 
L 308.224148 157.327406 
L 305.02311 160.944756 
L 301.353102 164.731945 
L 297.620017 168.246056 
L 293.786789 171.548887 
L 289.947475 174.578639 
L 285.740531 177.608391 
L 282.29537 179.880704 
L 277.92663 182.505259 
L 273.382002 184.940579 
L 268.837374 187.081264 
L 265.050185 188.639158 
L 261.262995 189.985586 
L 257.475805 191.109264 
L 253.642174 191.999712 
L 250.658863 192.500616 
L 247.629112 192.811866 
L 244.59936 192.8849 
L 243.084484 192.815029 
L 243.084484 192.815029 
" style="fill:none;stroke:#008000;stroke-width:2.0;"/>
   </g>
   <g id="LineCollection_3">
    <path clip-path="url(#p4fdf0a3df5)" d="M 187.627116 392.720769 
L 214.656861 320.764164 
L 227.588903 286.679456 
L 233.237791 272.243029 
L 237.782418 261.268781 
L 241.073586 254.109624 
L 243.084484 250.277407 
L 244.943697 247.292682 
L 246.114236 245.716934 
L 247.629112 244.102904 
L 249.143988 242.968438 
L 250.658863 242.29196 
L 252.173739 242.027722 
L 253.688615 242.100782 
L 255.203491 242.450999 
L 256.718367 243.023375 
L 258.990681 244.19544 
L 262.777871 246.704899 
L 266.56506 249.648326 
L 271.109688 253.507102 
L 277.92663 259.669796 
L 290.42933 271.530697 
L 298.377454 279.24045 
L 325.915874 306.372843 
L 346.096046 326.415632 
L 383.742934 363.938127 
L 405.933644 386.087278 
L 406.691082 386.843604 
L 406.691082 386.843604 
" style="fill:none;stroke:#ffa500;stroke-width:2.0;"/>
    <path clip-path="url(#p4fdf0a3df5)" d="M 406.691082 86.599397 
L 383.210505 94.709332 
L 368.819184 99.439378 
L 356.700177 103.167505 
L 348.368359 105.507115 
L 341.551418 107.204592 
L 336.249352 108.317962 
L 331.704724 109.056674 
L 327.917535 109.446668 
L 324.887783 109.537421 
L 322.615469 109.419979 
L 320.343155 109.067129 
L 318.828279 108.648882 
L 317.152405 107.924099 
L 315.798527 107.038153 
L 315.041089 106.362282 
L 313.875778 104.894347 
L 313.090036 103.379471 
L 312.570171 101.864595 
L 312.117631 99.592281 
L 311.931143 97.319968 
L 311.959439 94.290216 
L 312.208032 91.260464 
L 312.768776 87.256697 
L 313.581732 82.928647 
L 314.969907 76.869143 
L 316.977523 69.294763 
L 319.644385 60.205508 
L 323.230273 48.843939 
L 328.674973 32.540098 
L 334.051608 17.031545 
L 334.850916 14.759231 
L 334.850916 14.759231 
" style="fill:none;stroke:#ffa500;stroke-width:2.0;"/>
    <path clip-path="url(#p4fdf0a3df5)" d="M 34.606709 14.759231 
L 61.299375 41.503281 
L 98.048648 78.384019 
L 151.023617 132.162113 
L 164.559912 146.553435 
L 170.547758 153.370376 
L 174.182223 157.915004 
L 176.319627 160.944756 
L 178.072037 163.974507 
L 178.733923 165.489383 
L 179.206101 167.004259 
L 179.423947 168.519135 
L 179.337334 170.034011 
L 178.873676 171.548887 
L 177.94482 173.094817 
L 176.601236 174.578639 
L 174.753868 176.093515 
L 171.885316 177.948137 
L 168.855565 179.612078 
L 165.232579 181.39558 
L 156.622781 185.18277 
L 144.61755 190.031931 
L 128.711353 196.185128 
L 101.759079 206.391033 
L 61.299375 221.59209 
L 28.729543 233.823196 
L 28.729543 233.823196 
" style="fill:none;stroke:#ffa500;stroke-width:2.0;"/>
    <path clip-path="url(#p4fdf0a3df5)" d="M 240.81217 208.808151 
L 239.297294 208.436569 
L 237.782418 207.829858 
L 235.510104 206.583506 
L 233.022597 204.876157 
L 230.158883 202.603843 
L 226.762464 199.574091 
L 223.391097 196.271958 
L 220.114658 192.75715 
L 217.331594 189.421766 
L 215.816718 187.378059 
L 214.301842 184.977396 
L 213.544404 183.489612 
L 213.013744 182.153018 
L 212.642162 180.638142 
L 212.56932 179.123267 
L 212.870445 177.608391 
L 213.544404 176.232454 
L 214.200344 175.336077 
L 215.05928 174.450152 
L 216.794417 173.063763 
L 219.298777 171.548887 
L 222.633659 169.957137 
L 226.420849 168.476742 
L 231.016864 167.004259 
L 235.510104 165.870481 
L 239.297294 165.163425 
L 242.327046 164.804357 
L 244.59936 164.697723 
L 246.871674 164.779036 
L 249.143988 165.127842 
L 250.658863 165.567013 
L 252.173739 166.265569 
L 253.688615 167.385899 
L 254.689605 168.519135 
L 255.568463 170.034011 
L 256.128962 171.548887 
L 256.474246 173.063763 
L 256.723917 175.336077 
L 256.718367 177.982899 
L 256.492398 180.638142 
L 255.896508 184.425332 
L 255.043149 188.212522 
L 253.740545 192.75715 
L 252.695433 195.786901 
L 251.156508 199.574091 
L 249.901425 202.151536 
L 248.38655 204.655895 
L 246.871674 206.535042 
L 245.356798 207.823427 
L 244.59936 208.263869 
L 243.084484 208.782239 
L 241.569608 208.886341 
L 240.81217 208.808151 
L 240.81217 208.808151 
" style="fill:none;stroke:#ffa500;stroke-width:2.0;"/>
   </g>
   <g id="LineCollection_4">
    <path clip-path="url(#p4fdf0a3df5)" d="M 256.463587 14.759231 
L 189.774234 392.720769 
L 189.774234 392.720769 
" style="fill:none;stroke:#0000ff;stroke-dasharray:6.000000,6.000000;stroke-dashoffset:0.0;stroke-width:1.5;"/>
   </g>
   <g id="LineCollection_5">
    <path clip-path="url(#p4fdf0a3df5)" d="M 406.691082 164.986726 
L 28.729543 231.676078 
L 28.729543 231.676078 
" style="fill:none;stroke:#0000ff;stroke-dasharray:6.000000,6.000000;stroke-dashoffset:0.0;stroke-width:1.5;"/>
   </g>
   <g id="LineCollection_6">
    <path clip-path="url(#p4fdf0a3df5)" d="M 28.729543 218.993163 
L 202.457149 392.720769 
L 202.457149 392.720769 
" style="fill:none;stroke:#0000ff;stroke-dasharray:6.000000,6.000000;stroke-dashoffset:0.0;stroke-width:1.5;"/>
   </g>
   <g id="LineCollection_7">
    <path clip-path="url(#p4fdf0a3df5)" d="M 28.729543 166.46901 
L 406.691082 168.311707 
L 406.691082 168.311707 
" style="fill:none;stroke:#ff00ff;stroke-dasharray:6.000000,6.000000;stroke-dashoffset:0.0;stroke-width:1.5;"/>
   </g>
   <g id="LineCollection_8">
    <path clip-path="url(#p4fdf0a3df5)" d="M 254.981303 392.720769 
L 253.138605 14.759231 
L 253.138605 14.759231 
" style="fill:none;stroke:#ff00ff;stroke-dasharray:6.000000,6.000000;stroke-dashoffset:0.0;stroke-width:1.5;"/>
   </g>
   <g id="LineCollection_9">
    <path clip-path="url(#p4fdf0a3df5)" d="M 28.729543 16.686137 
L 404.764175 392.720769 
L 404.764175 392.720769 
" style="fill:none;stroke:#ff00ff;stroke-dasharray:6.000000,6.000000;stroke-dashoffset:0.0;stroke-width:1.5;"/>
   </g>
   <g id="patch_3">
    <path d="M 21.170312 7.2 
L 414.250312 7.2 
" style="fill:none;stroke:#000000;stroke-linecap:square;stroke-linejoin:miter;stroke-width:0.8;"/>
   </g>
   <g id="patch_4">
    <path d="M 414.250312 400.28 
L 414.250312 7.2 
" style="fill:none;stroke:#000000;stroke-linecap:square;stroke-linejoin:miter;stroke-width:0.8;"/>
   </g>
   <g id="patch_5">
    <path d="M 21.170312 400.28 
L 414.250312 400.28 
" style="fill:none;stroke:#000000;stroke-linecap:square;stroke-linejoin:miter;stroke-width:0.8;"/>
   </g>
   <g id="patch_6">
    <path d="M 21.170313 400.28 
L 21.170313 7.2 
" style="fill:none;stroke:#000000;stroke-linecap:square;stroke-linejoin:miter;stroke-width:0.8;"/>
   </g>
   <g id="matplotlib.axis_1">
    <g id="xtick_1">
     <g id="line2d_1">
      <defs>
       <path d="M 0 0 
L 0 -4 
" id="md921a5fed8" style="stroke:#000000;stroke-width:0.5;"/>
      </defs>
      <g>
       <use style="stroke:#000000;stroke-width:0.5;" x="80.2697530594" xlink:href="#md921a5fed8" y="400.28"/>
      </g>
     </g>
     <g id="line2d_2">
      <defs>
       <path d="M 0 0 
L 0 4 
" id="m1b85bb523e" style="stroke:#000000;stroke-width:0.5;"/>
      </defs>
      <g>
       <use style="stroke:#000000;stroke-width:0.5;" x="80.2697530594" xlink:href="#m1b85bb523e" y="7.2"/>
      </g>
     </g>
     <g id="text_1">
      <!-- -4 -->
      <defs>
       <path d="M 4.890625 31.390625 
L 31.203125 31.390625 
L 31.203125 23.390625 
L 4.890625 23.390625 
z
" id="BitstreamVeraSans-Roman-2d"/>
       <path d="M 37.796875 64.3125 
L 12.890625 25.390625 
L 37.796875 25.390625 
z
M 35.203125 72.90625 
L 47.609375 72.90625 
L 47.609375 25.390625 
L 58.015625 25.390625 
L 58.015625 17.1875 
L 47.609375 17.1875 
L 47.609375 0 
L 37.796875 0 
L 37.796875 17.1875 
L 4.890625 17.1875 
L 4.890625 26.703125 
z
" id="BitstreamVeraSans-Roman-34"/>
      </defs>
      <g transform="translate(75.2845968094 411.8784375)scale(0.1 -0.1)">
       <use xlink:href="#BitstreamVeraSans-Roman-2d"/>
       <use x="36.083984375" xlink:href="#BitstreamVeraSans-Roman-34"/>
      </g>
     </g>
    </g>
    <g id="xtick_2">
     <g id="line2d_3">
      <g>
       <use style="stroke:#000000;stroke-width:0.5;" x="148.99003278" xlink:href="#md921a5fed8" y="400.28"/>
      </g>
     </g>
     <g id="line2d_4">
      <g>
       <use style="stroke:#000000;stroke-width:0.5;" x="148.99003278" xlink:href="#m1b85bb523e" y="7.2"/>
      </g>
     </g>
     <g id="text_2">
      <!-- -2 -->
      <defs>
       <path d="M 19.1875 8.296875 
L 53.609375 8.296875 
L 53.609375 0 
L 7.328125 0 
L 7.328125 8.296875 
Q 12.9375 14.109375 22.625 23.890625 
Q 32.328125 33.6875 34.8125 36.53125 
Q 39.546875 41.84375 41.421875 45.53125 
Q 43.3125 49.21875 43.3125 52.78125 
Q 43.3125 58.59375 39.234375 62.25 
Q 35.15625 65.921875 28.609375 65.921875 
Q 23.96875 65.921875 18.8125 64.3125 
Q 13.671875 62.703125 7.8125 59.421875 
L 7.8125 69.390625 
Q 13.765625 71.78125 18.9375 73 
Q 24.125 74.21875 28.421875 74.21875 
Q 39.75 74.21875 46.484375 68.546875 
Q 53.21875 62.890625 53.21875 53.421875 
Q 53.21875 48.921875 51.53125 44.890625 
Q 49.859375 40.875 45.40625 35.40625 
Q 44.1875 33.984375 37.640625 27.21875 
Q 31.109375 20.453125 19.1875 8.296875 
" id="BitstreamVeraSans-Roman-32"/>
      </defs>
      <g transform="translate(144.00487653 411.8784375)scale(0.1 -0.1)">
       <use xlink:href="#BitstreamVeraSans-Roman-2d"/>
       <use x="36.083984375" xlink:href="#BitstreamVeraSans-Roman-32"/>
      </g>
     </g>
    </g>
    <g id="xtick_3">
     <g id="line2d_5">
      <g>
       <use style="stroke:#000000;stroke-width:0.5;" x="217.7103125" xlink:href="#md921a5fed8" y="400.28"/>
      </g>
     </g>
     <g id="line2d_6">
      <g>
       <use style="stroke:#000000;stroke-width:0.5;" x="217.7103125" xlink:href="#m1b85bb523e" y="7.2"/>
      </g>
     </g>
     <g id="text_3">
      <!-- 0 -->
      <defs>
       <path d="M 31.78125 66.40625 
Q 24.171875 66.40625 20.328125 58.90625 
Q 16.5 51.421875 16.5 36.375 
Q 16.5 21.390625 20.328125 13.890625 
Q 24.171875 6.390625 31.78125 6.390625 
Q 39.453125 6.390625 43.28125 13.890625 
Q 47.125 21.390625 47.125 36.375 
Q 47.125 51.421875 43.28125 58.90625 
Q 39.453125 66.40625 31.78125 66.40625 
M 31.78125 74.21875 
Q 44.046875 74.21875 50.515625 64.515625 
Q 56.984375 54.828125 56.984375 36.375 
Q 56.984375 17.96875 50.515625 8.265625 
Q 44.046875 -1.421875 31.78125 -1.421875 
Q 19.53125 -1.421875 13.0625 8.265625 
Q 6.59375 17.96875 6.59375 36.375 
Q 6.59375 54.828125 13.0625 64.515625 
Q 19.53125 74.21875 31.78125 74.21875 
" id="BitstreamVeraSans-Roman-30"/>
      </defs>
      <g transform="translate(214.5290625 411.8784375)scale(0.1 -0.1)">
       <use xlink:href="#BitstreamVeraSans-Roman-30"/>
      </g>
     </g>
    </g>
    <g id="xtick_4">
     <g id="line2d_7">
      <g>
       <use style="stroke:#000000;stroke-width:0.5;" x="286.43059222" xlink:href="#md921a5fed8" y="400.28"/>
      </g>
     </g>
     <g id="line2d_8">
      <g>
       <use style="stroke:#000000;stroke-width:0.5;" x="286.43059222" xlink:href="#m1b85bb523e" y="7.2"/>
      </g>
     </g>
     <g id="text_4">
      <!-- 2 -->
      <g transform="translate(283.24934222 411.8784375)scale(0.1 -0.1)">
       <use xlink:href="#BitstreamVeraSans-Roman-32"/>
      </g>
     </g>
    </g>
    <g id="xtick_5">
     <g id="line2d_9">
      <g>
       <use style="stroke:#000000;stroke-width:0.5;" x="355.150871941" xlink:href="#md921a5fed8" y="400.28"/>
      </g>
     </g>
     <g id="line2d_10">
      <g>
       <use style="stroke:#000000;stroke-width:0.5;" x="355.150871941" xlink:href="#m1b85bb523e" y="7.2"/>
      </g>
     </g>
     <g id="text_5">
      <!-- 4 -->
      <g transform="translate(351.969621941 411.8784375)scale(0.1 -0.1)">
       <use xlink:href="#BitstreamVeraSans-Roman-34"/>
      </g>
     </g>
    </g>
    <g id="xtick_6">
     <g id="line2d_11">
      <defs>
       <path d="M 0 0 
L 0 -2 
" id="me7ddbb6ea7" style="stroke:#000000;stroke-width:0.5;"/>
      </defs>
      <g>
       <use style="stroke:#000000;stroke-width:0.5;" x="28.7295432692" xlink:href="#me7ddbb6ea7" y="400.28"/>
      </g>
     </g>
     <g id="line2d_12">
      <defs>
       <path d="M 0 0 
L 0 2 
" id="m10f8f2acda" style="stroke:#000000;stroke-width:0.5;"/>
      </defs>
      <g>
       <use style="stroke:#000000;stroke-width:0.5;" x="28.7295432692" xlink:href="#m10f8f2acda" y="7.2"/>
      </g>
     </g>
    </g>
    <g id="xtick_7">
     <g id="line2d_13">
      <g>
       <use style="stroke:#000000;stroke-width:0.5;" x="45.9096131993" xlink:href="#me7ddbb6ea7" y="400.28"/>
      </g>
     </g>
     <g id="line2d_14">
      <g>
       <use style="stroke:#000000;stroke-width:0.5;" x="45.9096131993" xlink:href="#m10f8f2acda" y="7.2"/>
      </g>
     </g>
    </g>
    <g id="xtick_8">
     <g id="line2d_15">
      <g>
       <use style="stroke:#000000;stroke-width:0.5;" x="63.0896831294" xlink:href="#me7ddbb6ea7" y="400.28"/>
      </g>
     </g>
     <g id="line2d_16">
      <g>
       <use style="stroke:#000000;stroke-width:0.5;" x="63.0896831294" xlink:href="#m10f8f2acda" y="7.2"/>
      </g>
     </g>
    </g>
    <g id="xtick_9">
     <g id="line2d_17">
      <g>
       <use style="stroke:#000000;stroke-width:0.5;" x="97.4498229895" xlink:href="#me7ddbb6ea7" y="400.28"/>
      </g>
     </g>
     <g id="line2d_18">
      <g>
       <use style="stroke:#000000;stroke-width:0.5;" x="97.4498229895" xlink:href="#m10f8f2acda" y="7.2"/>
      </g>
     </g>
    </g>
    <g id="xtick_10">
     <g id="line2d_19">
      <g>
       <use style="stroke:#000000;stroke-width:0.5;" x="114.62989292" xlink:href="#me7ddbb6ea7" y="400.28"/>
      </g>
     </g>
     <g id="line2d_20">
      <g>
       <use style="stroke:#000000;stroke-width:0.5;" x="114.62989292" xlink:href="#m10f8f2acda" y="7.2"/>
      </g>
     </g>
    </g>
    <g id="xtick_11">
     <g id="line2d_21">
      <g>
       <use style="stroke:#000000;stroke-width:0.5;" x="131.80996285" xlink:href="#me7ddbb6ea7" y="400.28"/>
      </g>
     </g>
     <g id="line2d_22">
      <g>
       <use style="stroke:#000000;stroke-width:0.5;" x="131.80996285" xlink:href="#m10f8f2acda" y="7.2"/>
      </g>
     </g>
    </g>
    <g id="xtick_12">
     <g id="line2d_23">
      <g>
       <use style="stroke:#000000;stroke-width:0.5;" x="166.17010271" xlink:href="#me7ddbb6ea7" y="400.28"/>
      </g>
     </g>
     <g id="line2d_24">
      <g>
       <use style="stroke:#000000;stroke-width:0.5;" x="166.17010271" xlink:href="#m10f8f2acda" y="7.2"/>
      </g>
     </g>
    </g>
    <g id="xtick_13">
     <g id="line2d_25">
      <g>
       <use style="stroke:#000000;stroke-width:0.5;" x="183.35017264" xlink:href="#me7ddbb6ea7" y="400.28"/>
      </g>
     </g>
     <g id="line2d_26">
      <g>
       <use style="stroke:#000000;stroke-width:0.5;" x="183.35017264" xlink:href="#m10f8f2acda" y="7.2"/>
      </g>
     </g>
    </g>
    <g id="xtick_14">
     <g id="line2d_27">
      <g>
       <use style="stroke:#000000;stroke-width:0.5;" x="200.53024257" xlink:href="#me7ddbb6ea7" y="400.28"/>
      </g>
     </g>
     <g id="line2d_28">
      <g>
       <use style="stroke:#000000;stroke-width:0.5;" x="200.53024257" xlink:href="#m10f8f2acda" y="7.2"/>
      </g>
     </g>
    </g>
    <g id="xtick_15">
     <g id="line2d_29">
      <g>
       <use style="stroke:#000000;stroke-width:0.5;" x="234.89038243" xlink:href="#me7ddbb6ea7" y="400.28"/>
      </g>
     </g>
     <g id="line2d_30">
      <g>
       <use style="stroke:#000000;stroke-width:0.5;" x="234.89038243" xlink:href="#m10f8f2acda" y="7.2"/>
      </g>
     </g>
    </g>
    <g id="xtick_16">
     <g id="line2d_31">
      <g>
       <use style="stroke:#000000;stroke-width:0.5;" x="252.07045236" xlink:href="#me7ddbb6ea7" y="400.28"/>
      </g>
     </g>
     <g id="line2d_32">
      <g>
       <use style="stroke:#000000;stroke-width:0.5;" x="252.07045236" xlink:href="#m10f8f2acda" y="7.2"/>
      </g>
     </g>
    </g>
    <g id="xtick_17">
     <g id="line2d_33">
      <g>
       <use style="stroke:#000000;stroke-width:0.5;" x="269.25052229" xlink:href="#me7ddbb6ea7" y="400.28"/>
      </g>
     </g>
     <g id="line2d_34">
      <g>
       <use style="stroke:#000000;stroke-width:0.5;" x="269.25052229" xlink:href="#m10f8f2acda" y="7.2"/>
      </g>
     </g>
    </g>
    <g id="xtick_18">
     <g id="line2d_35">
      <g>
       <use style="stroke:#000000;stroke-width:0.5;" x="303.61066215" xlink:href="#me7ddbb6ea7" y="400.28"/>
      </g>
     </g>
     <g id="line2d_36">
      <g>
       <use style="stroke:#000000;stroke-width:0.5;" x="303.61066215" xlink:href="#m10f8f2acda" y="7.2"/>
      </g>
     </g>
    </g>
    <g id="xtick_19">
     <g id="line2d_37">
      <g>
       <use style="stroke:#000000;stroke-width:0.5;" x="320.79073208" xlink:href="#me7ddbb6ea7" y="400.28"/>
      </g>
     </g>
     <g id="line2d_38">
      <g>
       <use style="stroke:#000000;stroke-width:0.5;" x="320.79073208" xlink:href="#m10f8f2acda" y="7.2"/>
      </g>
     </g>
    </g>
    <g id="xtick_20">
     <g id="line2d_39">
      <g>
       <use style="stroke:#000000;stroke-width:0.5;" x="337.97080201" xlink:href="#me7ddbb6ea7" y="400.28"/>
      </g>
     </g>
     <g id="line2d_40">
      <g>
       <use style="stroke:#000000;stroke-width:0.5;" x="337.97080201" xlink:href="#m10f8f2acda" y="7.2"/>
      </g>
     </g>
    </g>
    <g id="xtick_21">
     <g id="line2d_41">
      <g>
       <use style="stroke:#000000;stroke-width:0.5;" x="372.330941871" xlink:href="#me7ddbb6ea7" y="400.28"/>
      </g>
     </g>
     <g id="line2d_42">
      <g>
       <use style="stroke:#000000;stroke-width:0.5;" x="372.330941871" xlink:href="#m10f8f2acda" y="7.2"/>
      </g>
     </g>
    </g>
    <g id="xtick_22">
     <g id="line2d_43">
      <g>
       <use style="stroke:#000000;stroke-width:0.5;" x="389.511011801" xlink:href="#me7ddbb6ea7" y="400.28"/>
      </g>
     </g>
     <g id="line2d_44">
      <g>
       <use style="stroke:#000000;stroke-width:0.5;" x="389.511011801" xlink:href="#m10f8f2acda" y="7.2"/>
      </g>
     </g>
    </g>
    <g id="xtick_23">
     <g id="line2d_45">
      <g>
       <use style="stroke:#000000;stroke-width:0.5;" x="406.691081731" xlink:href="#me7ddbb6ea7" y="400.28"/>
      </g>
     </g>
     <g id="line2d_46">
      <g>
       <use style="stroke:#000000;stroke-width:0.5;" x="406.691081731" xlink:href="#m10f8f2acda" y="7.2"/>
      </g>
     </g>
    </g>
   </g>
   <g id="matplotlib.axis_2">
    <g id="ytick_1">
     <g id="line2d_47">
      <defs>
       <path d="M 0 0 
L 4 0 
" id="m519d275d5c" style="stroke:#000000;stroke-width:0.5;"/>
      </defs>
      <g>
       <use style="stroke:#000000;stroke-width:0.5;" x="21.1703125" xlink:href="#m519d275d5c" y="341.180559441"/>
      </g>
     </g>
     <g id="line2d_48">
      <defs>
       <path d="M 0 0 
L -4 0 
" id="m99af002780" style="stroke:#000000;stroke-width:0.5;"/>
      </defs>
      <g>
       <use style="stroke:#000000;stroke-width:0.5;" x="414.2503125" xlink:href="#m99af002780" y="341.180559441"/>
      </g>
     </g>
     <g id="text_6">
      <!-- -4 -->
      <g transform="translate(7.2 343.939934441)scale(0.1 -0.1)">
       <use xlink:href="#BitstreamVeraSans-Roman-2d"/>
       <use x="36.083984375" xlink:href="#BitstreamVeraSans-Roman-34"/>
      </g>
     </g>
    </g>
    <g id="ytick_2">
     <g id="line2d_49">
      <g>
       <use style="stroke:#000000;stroke-width:0.5;" x="21.1703125" xlink:href="#m519d275d5c" y="272.46027972"/>
      </g>
     </g>
     <g id="line2d_50">
      <g>
       <use style="stroke:#000000;stroke-width:0.5;" x="414.2503125" xlink:href="#m99af002780" y="272.46027972"/>
      </g>
     </g>
     <g id="text_7">
      <!-- -2 -->
      <g transform="translate(7.2 275.21965472)scale(0.1 -0.1)">
       <use xlink:href="#BitstreamVeraSans-Roman-2d"/>
       <use x="36.083984375" xlink:href="#BitstreamVeraSans-Roman-32"/>
      </g>
     </g>
    </g>
    <g id="ytick_3">
     <g id="line2d_51">
      <g>
       <use style="stroke:#000000;stroke-width:0.5;" x="21.1703125" xlink:href="#m519d275d5c" y="203.74"/>
      </g>
     </g>
     <g id="line2d_52">
      <g>
       <use style="stroke:#000000;stroke-width:0.5;" x="414.2503125" xlink:href="#m99af002780" y="203.74"/>
      </g>
     </g>
     <g id="text_8">
      <!-- 0 -->
      <g transform="translate(10.8078125 206.499375)scale(0.1 -0.1)">
       <use xlink:href="#BitstreamVeraSans-Roman-30"/>
      </g>
     </g>
    </g>
    <g id="ytick_4">
     <g id="line2d_53">
      <g>
       <use style="stroke:#000000;stroke-width:0.5;" x="21.1703125" xlink:href="#m519d275d5c" y="135.01972028"/>
      </g>
     </g>
     <g id="line2d_54">
      <g>
       <use style="stroke:#000000;stroke-width:0.5;" x="414.2503125" xlink:href="#m99af002780" y="135.01972028"/>
      </g>
     </g>
     <g id="text_9">
      <!-- 2 -->
      <g transform="translate(10.8078125 137.77909528)scale(0.1 -0.1)">
       <use xlink:href="#BitstreamVeraSans-Roman-32"/>
      </g>
     </g>
    </g>
    <g id="ytick_5">
     <g id="line2d_55">
      <g>
       <use style="stroke:#000000;stroke-width:0.5;" x="21.1703125" xlink:href="#m519d275d5c" y="66.2994405594"/>
      </g>
     </g>
     <g id="line2d_56">
      <g>
       <use style="stroke:#000000;stroke-width:0.5;" x="414.2503125" xlink:href="#m99af002780" y="66.2994405594"/>
      </g>
     </g>
     <g id="text_10">
      <!-- 4 -->
      <g transform="translate(10.8078125 69.0588155594)scale(0.1 -0.1)">
       <use xlink:href="#BitstreamVeraSans-Roman-34"/>
      </g>
     </g>
    </g>
    <g id="ytick_6">
     <g id="line2d_57">
      <defs>
       <path d="M 0 0 
L 2 0 
" id="mf80b5f1889" style="stroke:#000000;stroke-width:0.5;"/>
      </defs>
      <g>
       <use style="stroke:#000000;stroke-width:0.5;" x="21.1703125" xlink:href="#mf80b5f1889" y="392.720769231"/>
      </g>
     </g>
     <g id="line2d_58">
      <defs>
       <path d="M 0 0 
L -2 0 
" id="mf6eac5662c" style="stroke:#000000;stroke-width:0.5;"/>
      </defs>
      <g>
       <use style="stroke:#000000;stroke-width:0.5;" x="414.2503125" xlink:href="#mf6eac5662c" y="392.720769231"/>
      </g>
     </g>
    </g>
    <g id="ytick_7">
     <g id="line2d_59">
      <g>
       <use style="stroke:#000000;stroke-width:0.5;" x="21.1703125" xlink:href="#mf80b5f1889" y="375.540699301"/>
      </g>
     </g>
     <g id="line2d_60">
      <g>
       <use style="stroke:#000000;stroke-width:0.5;" x="414.2503125" xlink:href="#mf6eac5662c" y="375.540699301"/>
      </g>
     </g>
    </g>
    <g id="ytick_8">
     <g id="line2d_61">
      <g>
       <use style="stroke:#000000;stroke-width:0.5;" x="21.1703125" xlink:href="#mf80b5f1889" y="358.360629371"/>
      </g>
     </g>
     <g id="line2d_62">
      <g>
       <use style="stroke:#000000;stroke-width:0.5;" x="414.2503125" xlink:href="#mf6eac5662c" y="358.360629371"/>
      </g>
     </g>
    </g>
    <g id="ytick_9">
     <g id="line2d_63">
      <g>
       <use style="stroke:#000000;stroke-width:0.5;" x="21.1703125" xlink:href="#mf80b5f1889" y="324.00048951"/>
      </g>
     </g>
     <g id="line2d_64">
      <g>
       <use style="stroke:#000000;stroke-width:0.5;" x="414.2503125" xlink:href="#mf6eac5662c" y="324.00048951"/>
      </g>
     </g>
    </g>
    <g id="ytick_10">
     <g id="line2d_65">
      <g>
       <use style="stroke:#000000;stroke-width:0.5;" x="21.1703125" xlink:href="#mf80b5f1889" y="306.82041958"/>
      </g>
     </g>
     <g id="line2d_66">
      <g>
       <use style="stroke:#000000;stroke-width:0.5;" x="414.2503125" xlink:href="#mf6eac5662c" y="306.82041958"/>
      </g>
     </g>
    </g>
    <g id="ytick_11">
     <g id="line2d_67">
      <g>
       <use style="stroke:#000000;stroke-width:0.5;" x="21.1703125" xlink:href="#mf80b5f1889" y="289.64034965"/>
      </g>
     </g>
     <g id="line2d_68">
      <g>
       <use style="stroke:#000000;stroke-width:0.5;" x="414.2503125" xlink:href="#mf6eac5662c" y="289.64034965"/>
      </g>
     </g>
    </g>
    <g id="ytick_12">
     <g id="line2d_69">
      <g>
       <use style="stroke:#000000;stroke-width:0.5;" x="21.1703125" xlink:href="#mf80b5f1889" y="255.28020979"/>
      </g>
     </g>
     <g id="line2d_70">
      <g>
       <use style="stroke:#000000;stroke-width:0.5;" x="414.2503125" xlink:href="#mf6eac5662c" y="255.28020979"/>
      </g>
     </g>
    </g>
    <g id="ytick_13">
     <g id="line2d_71">
      <g>
       <use style="stroke:#000000;stroke-width:0.5;" x="21.1703125" xlink:href="#mf80b5f1889" y="238.10013986"/>
      </g>
     </g>
     <g id="line2d_72">
      <g>
       <use style="stroke:#000000;stroke-width:0.5;" x="414.2503125" xlink:href="#mf6eac5662c" y="238.10013986"/>
      </g>
     </g>
    </g>
    <g id="ytick_14">
     <g id="line2d_73">
      <g>
       <use style="stroke:#000000;stroke-width:0.5;" x="21.1703125" xlink:href="#mf80b5f1889" y="220.92006993"/>
      </g>
     </g>
     <g id="line2d_74">
      <g>
       <use style="stroke:#000000;stroke-width:0.5;" x="414.2503125" xlink:href="#mf6eac5662c" y="220.92006993"/>
      </g>
     </g>
    </g>
    <g id="ytick_15">
     <g id="line2d_75">
      <g>
       <use style="stroke:#000000;stroke-width:0.5;" x="21.1703125" xlink:href="#mf80b5f1889" y="186.55993007"/>
      </g>
     </g>
     <g id="line2d_76">
      <g>
       <use style="stroke:#000000;stroke-width:0.5;" x="414.2503125" xlink:href="#mf6eac5662c" y="186.55993007"/>
      </g>
     </g>
    </g>
    <g id="ytick_16">
     <g id="line2d_77">
      <g>
       <use style="stroke:#000000;stroke-width:0.5;" x="21.1703125" xlink:href="#mf80b5f1889" y="169.37986014"/>
      </g>
     </g>
     <g id="line2d_78">
      <g>
       <use style="stroke:#000000;stroke-width:0.5;" x="414.2503125" xlink:href="#mf6eac5662c" y="169.37986014"/>
      </g>
     </g>
    </g>
    <g id="ytick_17">
     <g id="line2d_79">
      <g>
       <use style="stroke:#000000;stroke-width:0.5;" x="21.1703125" xlink:href="#mf80b5f1889" y="152.19979021"/>
      </g>
     </g>
     <g id="line2d_80">
      <g>
       <use style="stroke:#000000;stroke-width:0.5;" x="414.2503125" xlink:href="#mf6eac5662c" y="152.19979021"/>
      </g>
     </g>
    </g>
    <g id="ytick_18">
     <g id="line2d_81">
      <g>
       <use style="stroke:#000000;stroke-width:0.5;" x="21.1703125" xlink:href="#mf80b5f1889" y="117.83965035"/>
      </g>
     </g>
     <g id="line2d_82">
      <g>
       <use style="stroke:#000000;stroke-width:0.5;" x="414.2503125" xlink:href="#mf6eac5662c" y="117.83965035"/>
      </g>
     </g>
    </g>
    <g id="ytick_19">
     <g id="line2d_83">
      <g>
       <use style="stroke:#000000;stroke-width:0.5;" x="21.1703125" xlink:href="#mf80b5f1889" y="100.65958042"/>
      </g>
     </g>
     <g id="line2d_84">
      <g>
       <use style="stroke:#000000;stroke-width:0.5;" x="414.2503125" xlink:href="#mf6eac5662c" y="100.65958042"/>
      </g>
     </g>
    </g>
    <g id="ytick_20">
     <g id="line2d_85">
      <g>
       <use style="stroke:#000000;stroke-width:0.5;" x="21.1703125" xlink:href="#mf80b5f1889" y="83.4795104895"/>
      </g>
     </g>
     <g id="line2d_86">
      <g>
       <use style="stroke:#000000;stroke-width:0.5;" x="414.2503125" xlink:href="#mf6eac5662c" y="83.4795104895"/>
      </g>
     </g>
    </g>
    <g id="ytick_21">
     <g id="line2d_87">
      <g>
       <use style="stroke:#000000;stroke-width:0.5;" x="21.1703125" xlink:href="#mf80b5f1889" y="49.1193706294"/>
      </g>
     </g>
     <g id="line2d_88">
      <g>
       <use style="stroke:#000000;stroke-width:0.5;" x="414.2503125" xlink:href="#mf6eac5662c" y="49.1193706294"/>
      </g>
     </g>
    </g>
    <g id="ytick_22">
     <g id="line2d_89">
      <g>
       <use style="stroke:#000000;stroke-width:0.5;" x="21.1703125" xlink:href="#mf80b5f1889" y="31.9393006993"/>
      </g>
     </g>
     <g id="line2d_90">
      <g>
       <use style="stroke:#000000;stroke-width:0.5;" x="414.2503125" xlink:href="#mf6eac5662c" y="31.9393006993"/>
      </g>
     </g>
    </g>
    <g id="ytick_23">
     <g id="line2d_91">
      <g>
       <use style="stroke:#000000;stroke-width:0.5;" x="21.1703125" xlink:href="#mf80b5f1889" y="14.7592307692"/>
      </g>
     </g>
     <g id="line2d_92">
      <g>
       <use style="stroke:#000000;stroke-width:0.5;" x="414.2503125" xlink:href="#mf6eac5662c" y="14.7592307692"/>
      </g>
     </g>
    </g>
   </g>
   <g id="PathCollection_1">
    <path clip-path="url(#p4fdf0a3df5)" d="M 229.522455 170.983481 
C 230.46009 170.983481 231.359447 170.610955 232.022455 169.947947 
C 232.685463 169.284939 233.057989 168.385581 233.057989 167.447947 
C 233.057989 166.510312 232.685463 165.610955 232.022455 164.947947 
C 231.359447 164.284939 230.46009 163.912413 229.522455 163.912413 
C 228.584821 163.912413 227.685463 164.284939 227.022455 164.947947 
C 226.359447 165.610955 225.986921 166.510312 225.986921 167.447947 
C 225.986921 168.385581 226.359447 169.284939 227.022455 169.947947 
C 227.685463 170.610955 228.584821 170.983481 229.522455 170.983481 
z
" style="fill:#ff0000;"/>
   </g>
   <g id="PathCollection_2">
    <path clip-path="url(#p4fdf0a3df5)" d="M 254.002366 195.463391 
C 254.94 195.463391 255.839358 195.090865 256.502366 194.427857 
C 257.165373 193.76485 257.5379 192.865492 257.5379 191.927857 
C 257.5379 190.990223 257.165373 190.090865 256.502366 189.427857 
C 255.839358 188.76485 254.94 188.392324 254.002366 188.392324 
C 253.064731 188.392324 252.165373 188.76485 251.502366 189.427857 
C 250.839358 190.090865 250.466832 190.990223 250.466832 191.927857 
C 250.466832 192.865492 250.839358 193.76485 251.502366 194.427857 
C 252.165373 195.090865 253.064731 195.463391 254.002366 195.463391 
z
" style="fill:#ff0000;"/>
   </g>
  </g>
 </g>
 <defs>
  <clipPath id="p4fdf0a3df5">
   <rect height="393.08" width="393.08" x="21.1703125" y="7.2"/>
  </clipPath>
 </defs>
</svg>
